<svg width="111" height="50" viewBox="0 0 111 50" fill="none" xmlns="http://www.w3.org/2000/svg">
<rect y="10.3828" width="5.15891" height="27.826" rx="0.838724" fill="#37A6F7"/>
<rect x="16.6953" y="10.3828" width="4.29909" height="9.37454" rx="0.838724" fill="white"/>
<rect x="16.6914" y="22.0664" width="4.29909" height="16.145" rx="0.838724" fill="white"/>
<rect x="7.23633" y="26.5312" width="4.46407" height="13.7571" rx="0.838724" transform="rotate(-90 7.23633 26.5312)" fill="white"/>
<path d="M36.3992 38.3763C34.4424 38.3763 32.6613 37.9247 31.0557 37.0216C29.4752 36.1185 28.2209 34.9018 27.2927 33.3715C26.3645 31.8412 25.9004 30.1228 25.9004 28.2162C25.9004 26.3096 26.3394 24.5912 27.2174 23.0609C28.1206 21.5306 29.3373 20.3139 30.8676 19.4108C32.3978 18.5076 34.1037 18.0561 35.9852 18.0561C37.8667 18.0561 39.535 18.5202 40.99 19.4484C42.4451 20.3766 43.5865 21.6309 44.4144 23.2114C45.2673 24.7919 45.6938 26.5855 45.6938 28.5925V29.9472H31.1686C31.3944 30.7249 31.7581 31.4273 32.2599 32.0545C32.7867 32.6816 33.4264 33.1708 34.179 33.522C34.9567 33.8732 35.7845 34.0488 36.6626 34.0488C37.5406 34.0488 38.3434 33.9109 39.0709 33.6349C39.8235 33.359 40.4632 32.9701 40.99 32.4684L44.3767 35.554C43.1726 36.5324 41.9308 37.2474 40.6514 37.699C39.397 38.1505 37.9796 38.3763 36.3992 38.3763ZM31.0933 26.2594H40.6137C40.4381 25.4817 40.112 24.8044 39.6354 24.2274C39.1838 23.6253 38.6319 23.1612 37.9796 22.8351C37.3525 22.4839 36.65 22.3083 35.8724 22.3083C35.0696 22.3083 34.3421 22.4713 33.6898 22.7975C33.0376 23.1236 32.4856 23.5877 32.0341 24.1898C31.6076 24.7668 31.294 25.4566 31.0933 26.2594ZM53.7841 38H48.7312V10.494H53.7841V38ZM67.4912 38C66.2785 38 65.1393 37.7734 64.0736 37.3202C63.0079 36.8547 62.0708 36.2238 61.2623 35.4276C60.4661 34.6192 59.8353 33.6821 59.3698 32.6164C58.9166 31.5507 58.69 30.4115 58.69 29.1988V23.3559H56.2462V18.3581H58.69V10.494H63.6877V18.3581H71.2946V23.3559H63.6877V29.1988C63.6877 29.7256 63.7857 30.2217 63.9817 30.6871C64.1777 31.1404 64.4472 31.5385 64.7902 31.8814C65.1331 32.2244 65.5374 32.5 66.0029 32.7083C66.4683 32.9043 66.9644 33.0023 67.4912 33.0023H71.2946V38H67.4912ZM93.1781 38H91.9654L90.0177 35.299C89.54 35.7277 89.0317 36.132 88.4927 36.5117C87.966 36.8792 87.4086 37.2038 86.8207 37.4855C86.2327 37.755 85.6263 37.9694 85.0016 38.1286C84.3892 38.2879 83.7644 38.3675 83.1275 38.3675C81.7433 38.3675 80.4387 38.1347 79.2138 37.6693C78.0011 37.2038 76.9354 36.5301 76.0167 35.6481C75.1103 34.7539 74.3937 33.6637 73.8669 32.3775C73.3402 31.0914 73.0769 29.6276 73.0769 27.9861C73.0769 26.455 73.3402 25.0524 73.8669 23.7785C74.3937 22.4923 75.1103 21.3899 76.0167 20.4712C76.9354 19.5525 78.0011 18.842 79.2138 18.3398C80.4387 17.8253 81.7433 17.5681 83.1275 17.5681C83.7644 17.5681 84.3953 17.6477 85.02 17.8069C85.6447 17.9662 86.2511 18.1866 86.839 18.4684C87.427 18.7501 87.9843 19.0809 88.5111 19.4606C89.05 19.8403 89.5523 20.2507 90.0177 20.6916L91.9654 18.3581H93.1781V38ZM88.1252 27.9861C88.1252 27.3002 87.9905 26.6387 87.721 26.0017C87.4637 25.3525 87.1085 24.7829 86.6553 24.293C86.2021 23.7907 85.6692 23.3926 85.0567 23.0986C84.4565 22.7924 83.8134 22.6393 83.1275 22.6393C82.4415 22.6393 81.7923 22.7557 81.1798 22.9884C80.5796 23.2211 80.0529 23.5641 79.5997 24.0173C79.1587 24.4706 78.8096 25.034 78.5523 25.7078C78.2951 26.3692 78.1665 27.1287 78.1665 27.9861C78.1665 28.8436 78.2951 29.6092 78.5523 30.2829C78.8096 30.9444 79.1587 31.5017 79.5997 31.9549C80.0529 32.4082 80.5796 32.7511 81.1798 32.9839C81.7923 33.2166 82.4415 33.333 83.1275 33.333C83.8134 33.333 84.4565 33.186 85.0567 32.892C85.6692 32.5858 86.2021 32.1877 86.6553 31.6977C87.1085 31.1955 87.4637 30.6259 87.721 29.9889C87.9905 29.3397 88.1252 28.6721 88.1252 27.9861ZM102.034 38H97.0182V18.3214H98.2309L99.8846 20.6549C100.693 19.9199 101.612 19.3565 102.641 18.9645C103.67 18.5603 104.735 18.3581 105.838 18.3581H110.266V23.3559H105.838C105.311 23.3559 104.815 23.4539 104.349 23.6499C103.884 23.8459 103.48 24.1153 103.137 24.4583C102.794 24.8013 102.524 25.2055 102.328 25.671C102.132 26.1365 102.034 26.6326 102.034 27.1593V38Z" fill="white"/>
</svg>
